<?xml version="1.0" standalone="no"?>
<!DOCTYPE svg PUBLIC "-//W3C//DTD SVG 20010904//EN"
 "http://www.w3.org/TR/2001/REC-SVG-20010904/DTD/svg10.dtd">
<svg version="1.0" xmlns="http://www.w3.org/2000/svg"
 width="1667.000000pt" height="1667.000000pt" viewBox="0 0 1667.000000 1667.000000"
 preserveAspectRatio="xMidYMid meet">
<metadata>
Created by potrace 1.15, written by Peter Selinger 2001-2017
</metadata>
<g transform="translate(0.000000,1667.000000) scale(0.100000,-0.100000)"
fill="#000000" stroke="none">
<path d="M0 14519 l0 -2151 28 6 c15 3 48 8 75 12 26 3 50 10 53 15 3 5 16 9
30 9 14 0 58 11 97 24 40 13 90 27 112 32 22 4 51 15 64 25 14 11 40 19 62 19
28 0 39 4 39 15 0 8 14 17 35 21 27 5 34 10 30 23 -3 11 8 24 32 41 20 14 59
46 85 73 27 26 58 47 70 47 26 0 88 67 86 94 -2 25 55 112 83 126 10 6 19 17
19 25 0 8 6 15 13 15 7 0 4 7 -7 15 -18 14 -18 16 -3 33 9 10 17 26 17 35 0 9
8 22 18 29 26 18 45 95 25 102 -8 3 -12 10 -9 15 4 5 1 11 -5 13 -7 2 -6 22 6
63 9 33 22 86 29 118 6 32 16 61 22 65 11 7 24 152 29 325 2 49 9 127 15 174
7 47 10 101 6 121 -3 22 -2 31 3 23 12 -18 24 3 16 28 -3 11 -1 22 4 25 6 4 6
18 2 34 -7 22 1 52 35 138 24 60 44 113 44 118 0 5 11 19 25 32 15 13 22 29
19 38 -6 16 28 80 56 106 9 8 58 69 109 135 117 150 262 295 297 295 13 0 24
5 24 10 0 6 11 15 25 20 14 5 25 14 25 19 0 5 9 13 20 16 11 3 26 12 33 18 25
24 105 77 116 77 6 0 8 7 5 15 -4 9 3 16 22 21 15 4 52 20 82 35 29 16 71 34
92 40 27 8 37 16 33 26 -5 12 1 13 32 7 30 -5 36 -4 30 6 -6 10 -4 12 10 6 10
-3 25 -1 34 7 9 7 32 18 51 24 56 19 305 52 435 58 66 3 139 8 163 11 27 4 42
2 42 -4 0 -6 -19 -13 -42 -15 -39 -3 -38 -4 12 -5 54 -2 435 30 575 47 81 11
225 46 234 58 3 4 21 9 40 10 19 1 37 6 40 10 3 5 21 9 40 10 18 1 39 7 46 13
6 5 15 7 19 3 4 -4 10 -3 14 3 4 6 34 18 67 27 50 14 62 15 73 3 11 -11 25
-11 84 0 38 7 73 13 76 12 4 -1 14 1 22 4 8 4 43 12 78 18 34 7 62 16 62 21 0
5 33 18 73 29 39 12 83 26 97 32 14 6 30 11 36 10 6 -1 46 16 88 39 62 33 80
38 91 29 12 -10 15 -9 15 4 0 9 5 16 10 16 6 0 10 -4 10 -10 0 -11 133 -1 138
11 2 5 30 14 63 20 32 6 59 16 59 20 0 5 9 9 20 9 11 0 20 4 20 9 0 5 15 11
33 14 60 10 127 30 127 39 0 4 -5 8 -12 8 -6 0 -9 3 -6 6 4 3 16 0 28 -6 13
-7 25 -8 29 -3 8 12 101 32 101 22 0 -5 6 -6 13 -4 6 2 46 7 87 10 41 4 95 8
120 10 25 2 63 4 85 5 34 2 36 3 15 9 -24 7 -24 7 9 14 18 4 73 7 122 7 80 0
89 2 104 23 12 15 19 18 22 10 3 -7 11 -13 19 -13 9 0 12 5 9 10 -14 23 99 -1
118 -25 6 -6 10 -6 14 3 5 14 43 17 43 3 0 -6 12 -6 30 1 17 6 44 8 60 4 25
-5 30 -2 30 14 0 18 6 20 59 19 32 -1 63 1 68 4 6 4 43 7 84 8 41 1 80 6 88
13 9 7 58 10 137 8 78 -1 124 2 124 8 0 6 66 10 178 10 133 0 183 3 197 14 11
7 27 14 35 14 119 9 152 12 190 16 25 2 36 2 26 -1 -22 -6 -53 -33 -37 -33 5
0 22 5 38 11 36 14 65 19 183 29 142 12 630 12 630 0 0 -5 -4 -10 -10 -10 -5
0 -10 -3 -10 -7 0 -5 23 -8 50 -9 36 -1 50 3 50 12 0 8 5 14 10 14 6 0 10 -4
10 -10 0 -5 9 -10 19 -10 11 0 21 -5 23 -11 2 -7 45 -13 108 -15 139 -6 266
-22 308 -40 19 -8 55 -14 81 -14 32 0 42 -3 32 -9 -12 -8 -9 -11 11 -16 15 -4
32 -4 37 0 6 3 26 -1 44 -10 19 -9 46 -14 61 -11 14 3 24 1 21 -4 -6 -9 18
-20 46 -20 10 0 19 -4 19 -10 0 -5 14 -10 31 -10 41 0 141 -26 198 -52 128
-58 148 -66 170 -73 15 -4 19 -10 12 -14 -7 -5 -4 -11 11 -18 88 -43 140 -63
162 -63 14 0 26 -4 26 -10 0 -5 14 -10 30 -10 17 0 30 -4 30 -10 0 -5 9 -10
20 -10 11 0 20 -4 20 -9 0 -5 26 -17 58 -26 31 -9 62 -20 67 -25 6 -4 21 -11
35 -15 14 -4 32 -13 40 -20 8 -7 37 -20 65 -30 27 -9 68 -26 90 -37 22 -11 48
-24 57 -29 10 -5 23 -9 30 -9 7 0 26 -7 42 -15 16 -9 36 -13 43 -11 7 3 28 -3
46 -14 17 -11 42 -20 54 -20 12 0 24 -4 27 -9 4 -5 24 -12 46 -16 22 -4 42
-11 46 -16 3 -5 16 -9 30 -9 14 0 35 -6 47 -12 12 -7 31 -13 42 -14 23 -2 102
-29 127 -44 10 -6 28 -10 42 -10 23 0 83 -20 118 -40 9 -5 36 -13 60 -16 24
-4 49 -15 56 -26 7 -10 20 -18 28 -18 8 0 14 -7 14 -16 0 -9 6 -14 13 -11 8 3
20 1 28 -5 11 -8 11 -9 -3 -4 -11 3 -15 1 -12 -8 3 -8 12 -13 21 -12 10 1 17
-9 20 -29 5 -32 29 -65 47 -65 6 0 17 -9 24 -20 7 -11 21 -20 32 -20 11 0 20
-4 20 -10 0 -5 12 -10 26 -10 14 0 23 4 19 10 -3 6 -1 10 4 10 6 0 11 -4 11
-10 0 -5 7 -10 15 -10 8 0 19 -9 26 -21 8 -15 18 -20 35 -16 24 4 28 -2 25
-35 -2 -14 5 -18 27 -18 19 0 35 -8 48 -25 10 -14 29 -25 41 -25 16 0 21 -4
17 -15 -4 -11 -2 -13 9 -10 10 5 16 -2 19 -24 3 -22 0 -31 -9 -31 -15 0 -14
-2 32 -54 14 -16 25 -35 25 -42 0 -8 7 -14 15 -14 8 0 15 8 15 17 0 32 57 -39
64 -81 4 -21 14 -45 22 -53 8 -8 14 -24 15 -36 0 -12 5 -31 10 -42 7 -15 8 -8
6 28 -2 40 0 45 10 30 8 -10 13 -47 13 -91 0 -40 5 -82 10 -92 6 -10 11 -48
13 -83 1 -36 5 -61 8 -56 3 6 11 -16 18 -48 7 -32 15 -68 18 -80 3 -16 1 -23
-9 -23 -10 0 -13 -11 -10 -40 2 -22 8 -40 12 -40 5 0 6 -9 3 -20 -3 -11 2 -31
11 -45 9 -13 16 -43 16 -65 0 -29 3 -39 12 -34 7 5 9 2 5 -8 -22 -60 -30 -100
-19 -106 17 -11 23 -109 7 -122 -8 -7 -19 -9 -25 -5 -7 4 -9 -2 -5 -18 4 -14
2 -28 -4 -31 -7 -5 -11 2 -12 16 l0 23 -10 -23 c-5 -14 -14 -20 -20 -16 -7 4
-10 1 -7 -7 3 -8 12 -13 21 -11 11 2 15 -2 11 -13 -3 -8 -14 -15 -23 -15 -21
0 -46 -43 -36 -61 5 -8 4 -10 -3 -5 -7 4 -12 2 -12 -4 0 -7 -16 -28 -34 -46
-19 -19 -38 -44 -41 -54 -4 -11 -13 -20 -21 -20 -8 0 -12 -4 -9 -10 3 -5 3
-10 -2 -10 -8 0 -57 -67 -59 -82 -1 -4 -2 -12 -3 -18 0 -5 -10 -10 -22 -10
-11 0 -18 -4 -15 -9 3 -5 -1 -14 -9 -21 -8 -7 -15 -20 -15 -29 0 -9 -9 -23
-20 -31 -11 -8 -20 -22 -20 -32 0 -10 -4 -18 -8 -18 -5 0 -22 -23 -38 -51 -16
-27 -41 -71 -56 -97 -15 -26 -28 -55 -28 -64 0 -10 -4 -18 -9 -18 -5 0 -15
-20 -22 -45 -7 -25 -17 -45 -21 -45 -4 0 -8 -11 -8 -24 0 -14 -4 -28 -10 -31
-5 -3 -10 -15 -10 -26 0 -10 -4 -19 -10 -19 -5 0 -10 -18 -10 -40 0 -22 -4
-40 -10 -40 -5 0 -10 -13 -10 -30 0 -16 -4 -30 -9 -30 -9 0 -16 -35 -27 -132
-3 -27 -10 -45 -15 -42 -5 3 -9 -16 -9 -43 0 -26 -5 -64 -10 -83 -6 -19 -13
-100 -16 -180 -5 -112 -2 -162 10 -220 9 -41 16 -102 16 -135 0 -34 4 -65 9
-70 5 -6 11 -30 14 -55 9 -71 19 -110 28 -110 5 0 9 -23 9 -51 0 -31 4 -48 10
-44 9 5 15 -23 11 -47 0 -5 3 -8 9 -8 5 0 10 -14 10 -31 0 -17 4 -28 10 -24 6
3 10 -5 10 -19 0 -13 4 -26 10 -28 5 -1 11 -16 12 -33 1 -16 9 -39 18 -50 10
-11 21 -33 24 -49 4 -17 21 -46 37 -67 16 -20 29 -42 29 -49 0 -17 42 -90 52
-90 4 0 8 -12 8 -27 0 -14 3 -24 6 -20 8 7 34 -17 34 -32 0 -6 14 -24 31 -41
18 -16 28 -30 24 -30 -5 0 8 -17 28 -37 21 -20 37 -42 37 -50 0 -7 7 -13 16
-13 8 0 13 -4 10 -8 -8 -13 61 -85 73 -77 7 3 8 0 5 -9 -4 -10 -1 -16 9 -16
10 0 19 -13 23 -36 4 -19 14 -38 23 -42 9 -3 19 -11 23 -17 4 -7 19 -10 33 -7
15 2 25 0 25 -7 0 -6 -6 -11 -12 -11 -9 0 -8 -4 2 -10 8 -5 12 -10 8 -10 -12
0 68 -80 80 -80 5 0 12 -7 16 -15 3 -8 13 -15 21 -15 9 0 13 -5 10 -11 -4 -5
1 -19 11 -30 9 -10 14 -19 10 -19 -4 0 -1 -7 6 -15 7 -8 24 -28 38 -45 13 -16
30 -30 37 -30 7 0 13 -4 13 -9 0 -5 9 -11 20 -14 11 -3 20 -12 20 -21 0 -9 7
-16 15 -16 8 0 15 -9 15 -20 0 -12 11 -32 25 -46 14 -14 25 -28 25 -32 0 -15
25 -62 33 -62 4 0 7 -11 7 -25 0 -30 31 -95 54 -114 9 -8 17 -23 17 -35 1 -17
2 -17 6 -3 6 22 19 22 26 0 2 -10 8 -27 12 -38 7 -16 6 -18 -6 -7 -7 6 -17 12
-21 12 -7 0 -2 -13 23 -60 5 -8 18 -35 29 -59 11 -25 33 -65 48 -90 16 -25 41
-80 57 -121 16 -41 35 -82 42 -91 7 -9 11 -18 8 -21 -3 -3 6 -30 20 -61 13
-31 26 -65 28 -76 2 -11 6 -24 10 -27 4 -4 7 -17 7 -29 0 -12 3 -25 7 -29 5
-4 9 -20 9 -34 3 -46 20 -124 50 -227 10 -36 17 -92 16 -140 0 -44 3 -82 7
-85 10 -7 22 -80 13 -80 -4 0 -7 -46 -7 -102 0 -126 -7 -305 -13 -335 -2 -13
-11 -23 -19 -23 -11 0 -13 -4 -5 -12 7 -9 6 -17 -4 -26 -9 -8 -14 -9 -14 -2 0
7 -5 6 -14 -2 -8 -7 -12 -15 -10 -17 8 -8 -40 -41 -53 -37 -7 3 -13 1 -13 -4
0 -6 -9 -10 -21 -10 -11 0 -17 -4 -14 -10 3 -6 -1 -10 -10 -10 -18 0 -208 -91
-213 -102 -2 -5 -10 -8 -19 -8 -8 0 -21 -7 -30 -15 -8 -8 -19 -13 -24 -10 -5
4 -9 1 -9 -4 0 -6 -9 -11 -21 -11 -11 0 -17 -4 -14 -10 3 -6 -3 -10 -14 -10
-12 0 -21 -4 -21 -10 0 -5 -9 -10 -20 -10 -11 0 -20 -4 -20 -9 0 -5 -17 -20
-37 -32 -21 -13 -47 -31 -57 -41 -11 -10 -26 -18 -33 -18 -7 0 -13 -4 -13 -9
0 -5 -8 -12 -17 -15 -10 -3 -34 -19 -53 -36 -19 -16 -39 -30 -43 -30 -5 0 -5
-4 -2 -10 3 -6 -1 -10 -9 -10 -9 0 -16 -4 -16 -10 0 -5 -5 -10 -11 -10 -6 0
-38 -27 -70 -60 -32 -33 -59 -58 -59 -54 0 3 -16 -14 -36 -38 -87 -105 -101
-122 -131 -153 -18 -19 -33 -39 -33 -45 0 -5 -4 -10 -10 -10 -5 0 -10 -7 -10
-15 0 -8 -4 -15 -10 -15 -5 0 -10 -6 -10 -13 0 -7 -9 -19 -20 -27 -11 -8 -20
-20 -20 -28 0 -7 -7 -20 -15 -29 -22 -22 -87 -120 -115 -175 -14 -27 -29 -48
-33 -48 -5 0 -6 -4 -2 -9 3 -5 -2 -16 -10 -24 -8 -9 -15 -23 -15 -32 0 -9 -4
-13 -10 -10 -6 4 -10 -8 -10 -30 0 -20 -4 -34 -9 -31 -4 3 -14 -13 -21 -34 -7
-22 -17 -40 -22 -40 -4 0 -8 -6 -8 -12 -1 -17 -75 -98 -89 -98 -7 0 -25 -14
-41 -30 -17 -17 -35 -28 -41 -24 -11 6 -86 -10 -124 -27 -11 -5 -27 -8 -35 -7
-8 1 -24 0 -35 -1 -17 -1 -18 -3 -5 -11 12 -8 11 -10 -7 -10 -12 0 -25 -5 -28
-10 -3 -5 -14 -10 -25 -10 -10 0 -20 -7 -24 -15 -3 -8 -12 -15 -21 -15 -8 0
-15 -4 -15 -10 0 -5 -6 -10 -13 -10 -7 0 -23 -9 -35 -20 -12 -11 -28 -20 -37
-20 -8 0 -20 -11 -25 -25 -6 -16 -17 -25 -30 -25 -12 0 -19 -4 -16 -9 3 -5 -6
-12 -20 -15 -14 -4 -35 -17 -47 -29 -36 -37 -79 -67 -88 -61 -5 3 -9 0 -9 -6
0 -14 -40 -49 -57 -50 -13 0 -17 -17 -14 -52 3 -27 -102 -218 -119 -218 -14 0
-68 -116 -75 -161 -4 -25 -17 -53 -30 -65 -15 -13 -24 -38 -29 -75 -5 -34 -17
-66 -33 -88 -40 -51 -52 -98 -46 -163 4 -40 2 -58 -6 -58 -6 0 -11 -17 -11
-40 0 -22 -4 -40 -10 -40 -5 0 -10 -18 -10 -40 0 -35 -3 -40 -23 -40 -13 0
-32 -9 -42 -20 -23 -25 -35 -25 -35 0 0 11 5 20 10 20 6 0 10 27 10 62 0 66
-10 73 -17 12 -6 -58 -22 -78 -23 -29 0 30 -3 36 -10 25 -5 -8 -10 -32 -10
-52 0 -20 -5 -40 -10 -43 -5 -3 -10 -15 -10 -26 0 -12 -7 -19 -20 -19 -15 0
-20 -7 -20 -25 0 -18 -5 -25 -20 -25 -11 0 -20 -4 -20 -10 0 -5 -13 -10 -30
-10 -16 0 -30 5 -30 10 0 6 -4 10 -9 10 -6 0 -11 -15 -13 -32 -2 -26 -8 -34
-27 -36 -18 -3 -22 0 -18 12 5 11 1 16 -13 16 -15 0 -20 7 -20 25 0 14 5 25
10 25 6 0 10 8 10 18 1 18 22 52 34 52 3 0 6 -9 6 -20 0 -23 17 -25 42 -6 23
17 23 22 -4 29 -18 5 -19 8 -8 21 7 9 9 16 6 16 -4 0 0 7 9 16 9 10 14 25 12
35 -3 11 -1 19 4 19 4 0 6 7 3 15 -4 9 0 15 10 15 11 0 16 9 16 26 0 14 4 23
10 19 6 -3 10 1 10 10 0 9 5 13 10 10 6 -4 10 8 10 29 0 19 5 38 10 41 6 3 10
16 10 28 0 16 3 18 9 8 6 -8 9 6 9 40 0 30 4 55 11 57 6 2 11 17 11 34 0 16 6
36 14 44 13 12 15 10 19 -18 2 -21 4 -11 5 25 1 31 6 57 12 57 5 0 7 7 4 15
-4 8 -1 15 5 15 7 0 9 9 5 24 -7 29 4 69 17 61 5 -4 9 8 9 24 0 17 -5 31 -10
31 -6 0 -8 10 -5 23 2 12 6 36 9 54 2 17 7 37 11 42 11 18 7 323 -4 376 -6 28
-16 77 -22 110 -5 33 -14 68 -20 77 -5 10 -9 29 -9 43 0 32 -22 105 -32 105
-5 0 -8 16 -8 36 0 21 -4 33 -10 29 -6 -3 -10 5 -10 19 0 14 -4 28 -10 31 -5
3 -10 17 -10 31 0 13 -3 24 -8 24 -4 0 -12 15 -18 33 -26 74 -40 103 -57 119
-10 9 -18 20 -17 25 2 15 -34 88 -52 104 -10 9 -18 23 -18 30 0 8 -9 21 -20
29 -11 8 -20 20 -20 27 0 7 -4 13 -10 13 -5 0 -10 7 -10 15 0 8 -4 15 -10 15
-5 0 -10 6 -10 13 0 7 -9 23 -20 35 -11 12 -20 24 -20 27 0 12 -232 249 -276
282 -16 12 -39 31 -51 42 -12 12 -27 21 -33 21 -6 0 -8 4 -5 10 3 5 -3 10 -14
10 -12 0 -21 4 -21 9 0 5 -13 14 -30 21 -16 7 -30 16 -30 21 0 5 -9 9 -19 9
-11 0 -21 3 -23 8 -4 10 -86 62 -98 62 -5 0 -10 5 -10 10 0 6 -7 10 -15 10
-17 0 -56 20 -66 33 -4 5 -14 7 -24 5 -12 -2 11 -18 61 -43 43 -22 113 -62
154 -90 41 -27 78 -48 82 -47 5 1 8 -2 8 -7 0 -5 24 -27 54 -49 76 -58 236
-221 302 -308 129 -173 233 -376 289 -569 50 -173 68 -305 69 -500 0 -188 -12
-294 -45 -376 -10 -26 -15 -50 -11 -54 4 -4 -4 -2 -16 4 -21 11 -23 11 -20 -6
2 -10 10 -17 18 -15 10 2 11 0 2 -11 -7 -8 -9 -17 -5 -20 8 -9 -7 -8 -32 3
-17 7 -18 9 -4 15 27 10 12 43 -17 37 -13 -2 -31 1 -39 8 -12 10 -15 9 -17 -6
0 -11 -2 -24 -2 -31 -1 -6 -5 -15 -9 -19 -11 -12 -8 -26 5 -18 7 5 8 3 4 -5
-5 -7 -11 -10 -14 -7 -3 3 -14 -20 -24 -51 -35 -103 -108 -246 -185 -363 -98
-148 -294 -346 -433 -439 -180 -120 -386 -208 -588 -252 -71 -15 -149 -22
-287 -26 -164 -5 -207 -2 -314 16 -464 79 -877 357 -1119 753 -54 87 -107 193
-134 266 -11 31 -24 59 -27 62 -3 3 -6 10 -7 15 0 6 -4 27 -8 48 -7 32 -12 38
-28 34 -18 -5 -19 -4 -4 12 15 17 14 18 -31 14 -27 -2 -56 -5 -65 -7 -16 -4
-21 5 -17 30 0 4 -4 10 -9 13 -5 3 -12 24 -15 46 -3 22 -11 58 -18 80 -21 64
-18 426 4 548 46 251 136 475 274 681 67 98 202 258 262 308 35 30 38 38 16
38 -8 0 -15 -5 -15 -11 0 -6 -7 -17 -15 -25 -8 -9 -15 -13 -15 -9 0 4 -12 -8
-27 -27 -16 -18 -45 -50 -66 -71 -21 -20 -36 -37 -32 -37 3 0 -4 -11 -17 -24
-38 -39 -58 -66 -58 -77 0 -5 -4 -7 -10 -4 -5 3 -10 -1 -10 -9 0 -9 -4 -16
-10 -16 -5 0 -10 -7 -10 -15 0 -8 -4 -15 -10 -15 -5 0 -10 -9 -10 -21 0 -11
-4 -17 -10 -14 -5 3 -10 0 -10 -9 0 -8 -4 -16 -9 -18 -5 -1 -11 -10 -13 -18
-2 -8 -6 -17 -9 -20 -12 -9 -99 -181 -99 -196 0 -8 -4 -14 -10 -14 -5 0 -10
-9 -10 -20 0 -11 -4 -20 -8 -20 -4 0 -9 -12 -10 -27 -1 -16 -7 -30 -12 -31 -6
-2 -10 -17 -10 -33 0 -16 -4 -29 -10 -29 -5 0 -10 -16 -10 -35 0 -19 -4 -35
-10 -35 -5 0 -10 -20 -10 -45 0 -25 -4 -45 -10 -45 -5 0 -10 -13 -10 -29 0
-16 -5 -42 -10 -56 -17 -44 -13 -537 4 -619 8 -38 12 -74 9 -79 -3 -6 -1 -7 5
-3 9 5 12 -6 12 -38 0 -25 5 -46 10 -46 6 0 10 -18 10 -40 0 -22 5 -40 10 -40
6 0 10 -13 10 -30 0 -16 5 -30 10 -30 6 0 10 -9 10 -19 0 -11 5 -23 10 -26 6
-3 10 -19 10 -36 0 -16 5 -29 10 -29 6 0 10 -7 10 -15 0 -14 39 -106 67 -155
7 -14 21 -42 29 -62 9 -21 20 -38 25 -38 5 0 9 -7 9 -16 0 -8 4 -12 10 -9 5 3
10 -3 10 -14 0 -12 4 -21 9 -21 5 0 15 -16 22 -34 7 -19 16 -33 21 -30 4 3 8
-1 8 -8 0 -11 44 -84 68 -114 5 -5 15 -21 22 -34 7 -13 21 -33 32 -44 39 -43
88 -111 88 -123 0 -7 5 -13 10 -13 6 0 10 -9 10 -20 0 -11 5 -20 11 -20 6 0 3
-8 -7 -17 -15 -16 -15 -17 1 -23 14 -5 13 -8 -9 -18 -14 -6 -26 -16 -26 -21 0
-5 -14 -12 -31 -16 -17 -4 -42 -13 -57 -21 -15 -8 -39 -14 -54 -14 -15 0 -30
-4 -33 -10 -3 -5 -17 -10 -30 -10 -33 0 -55 -10 -55 -24 0 -28 -92 -49 -104
-23 -5 9 -7 9 -12 0 -3 -7 -10 -13 -15 -13 -6 0 -8 4 -4 9 5 9 -34 -6 -77 -29
-10 -6 -25 -7 -34 -3 -13 5 -15 2 -10 -15 6 -17 1 -21 -26 -27 -18 -4 -39 -11
-48 -16 -87 -46 -213 -89 -283 -95 -60 -5 -77 -10 -73 -20 3 -8 2 -14 -2 -15
-4 0 -24 -1 -45 -3 -21 -2 -43 -8 -49 -14 -7 -7 -33 -12 -58 -12 -26 0 -49 -2
-52 -5 -5 -6 -93 -13 -228 -20 -53 -2 -65 -6 -64 -19 1 -9 -6 -16 -16 -16 -10
0 -17 7 -16 15 1 13 -16 17 -94 20 -112 4 -232 15 -242 22 -5 2 -8 0 -8 -5 0
-5 -20 -5 -50 1 -28 5 -50 14 -50 18 0 5 -13 9 -30 9 -16 0 -30 4 -30 9 0 4
-25 11 -55 14 -59 6 -145 34 -157 51 -5 7 -11 6 -18 -4 -5 -8 -10 -10 -10 -4
0 7 -8 14 -17 17 -56 18 -127 48 -138 57 -7 6 -29 11 -49 12 -20 1 -36 5 -36
10 0 4 -9 8 -21 8 -14 0 -19 5 -16 14 4 10 -5 18 -25 25 -39 14 -78 14 -78 1
0 -15 -16 -12 -34 5 -8 8 -19 15 -25 15 -6 0 -11 9 -11 20 0 11 -7 20 -15 20
-10 0 -8 6 8 23 12 13 24 22 26 21 7 -5 80 79 75 87 -3 5 2 9 11 9 9 0 13 5
10 10 -3 6 2 10 11 10 10 0 15 3 11 6 -3 3 15 25 39 49 24 24 44 49 44 56 0 7
3 9 7 6 7 -8 39 34 35 46 -1 4 5 7 15 7 9 0 14 3 10 6 -3 3 4 17 16 30 59 64
67 74 67 84 0 5 3 10 8 10 4 0 18 18 32 40 14 22 28 40 32 40 5 0 8 7 8 16 0
9 12 28 28 43 15 14 28 33 30 41 2 8 9 18 15 22 7 4 8 8 3 8 -5 0 -2 8 7 18 8
9 27 44 42 77 14 32 30 62 35 65 6 3 11 18 12 33 1 15 6 27 10 27 4 0 8 9 8
20 0 11 5 20 10 20 6 0 10 12 10 26 0 14 4 23 10 19 6 -4 10 5 10 19 0 14 5
26 10 26 6 0 10 14 10 30 0 17 5 30 10 30 6 0 10 18 10 41 0 22 4 38 9 35 5
-3 11 9 14 27 2 17 12 70 21 117 33 170 37 203 43 318 5 108 0 177 -28 362 -5
36 -12 85 -15 110 -4 25 -10 47 -15 48 -5 2 -9 19 -9 38 0 19 -4 34 -10 34 -5
0 -10 9 -10 20 0 28 -23 100 -32 100 -5 0 -8 15 -8 33 0 24 -3 28 -10 17 -8
-13 -10 -12 -10 3 0 26 -24 97 -32 97 -5 0 -8 9 -8 20 0 11 -4 20 -10 20 -5 0
-10 4 -10 9 0 5 -16 38 -36 73 -20 34 -46 80 -57 101 -11 20 -24 37 -29 37 -4
0 -8 6 -8 13 0 7 -9 19 -20 27 -11 8 -20 20 -20 28 0 7 -15 27 -32 45 -18 18
-46 51 -63 72 -38 50 -225 235 -237 235 -5 0 -21 12 -37 28 -15 15 -38 34 -51
42 -13 8 -34 25 -47 38 -13 12 -30 22 -38 22 -8 0 -15 5 -15 10 0 6 -7 10 -15
10 -8 0 -15 3 -15 8 0 9 -49 32 -69 32 -8 0 -12 3 -8 6 3 4 -17 18 -46 33 -29
14 -54 29 -57 33 -5 6 -116 60 -130 64 -35 7 -60 18 -60 25 0 5 -9 9 -20 9
-11 0 -20 5 -20 10 0 6 -9 10 -20 10 -11 0 -20 4 -20 8 0 4 -20 13 -45 20 -25
7 -45 16 -45 22 0 5 -11 10 -24 10 -18 0 -27 8 -35 30 -5 17 -15 30 -20 30 -6
0 -11 6 -11 14 0 8 -6 17 -12 19 -10 4 -10 7 0 14 6 5 12 20 11 34 0 13 7 65
17 114 11 58 19 157 21 279 3 143 7 192 18 202 12 12 14 11 19 -8 3 -13 2 4
-2 37 -3 33 -5 115 -3 181 3 119 2 122 -23 147 -22 22 -26 35 -26 80 0 36 -5
59 -15 67 -8 7 -15 18 -15 24 0 6 5 4 10 -4 7 -11 10 -7 10 18 0 20 5 31 13
30 8 -2 13 12 15 40 3 40 2 42 -23 42 -26 0 -27 2 -21 43 5 32 4 37 -4 22 -9
-18 -10 -17 -6 5 12 68 18 170 9 170 -10 0 -10 86 1 97 3 3 6 0 7 -8 1 -26 28
86 29 119 0 23 -4 31 -12 26 -8 -5 -9 -2 -5 9 3 10 2 17 -3 17 -6 0 -10 4 -10
9 0 5 8 8 18 7 14 -1 16 6 14 34 -2 20 2 48 7 63 10 25 8 27 -14 27 -32 0 -41
18 -19 35 17 13 17 16 4 25 -9 6 -10 10 -3 10 7 0 24 11 39 25 14 13 29 24 33
23 6 -2 48 18 113 54 15 8 25 18 21 21 -3 4 13 7 36 7 26 0 40 4 36 10 -4 6 5
10 19 10 14 0 26 5 26 10 0 6 9 10 19 10 11 0 21 4 23 10 2 5 15 11 31 12 15
1 27 6 27 10 0 4 9 8 20 8 11 0 20 4 20 9 0 5 13 14 30 21 16 7 30 16 30 21 0
5 5 9 11 9 18 0 132 73 161 102 14 16 33 28 42 28 9 0 16 5 16 10 0 6 7 10 15
10 8 0 15 4 15 8 0 4 12 15 28 24 15 9 38 26 52 38 14 12 37 31 52 43 15 12
28 28 28 36 0 8 3 12 6 8 7 -6 94 80 148 147 17 21 41 49 54 62 12 13 22 25
22 28 0 5 8 16 52 68 10 11 20 29 23 39 4 11 11 19 16 19 5 0 9 4 9 9 0 9 63
118 80 138 5 7 10 19 10 28 0 8 5 15 10 15 6 0 10 9 10 20 0 11 5 20 10 20 6
0 10 12 10 26 0 14 4 23 10 19 6 -3 10 5 10 19 0 14 4 28 10 31 6 3 10 17 10
31 0 13 5 24 10 24 6 0 10 18 10 40 0 22 4 40 8 40 4 0 13 21 20 48 7 26 17
61 22 78 6 17 10 45 10 63 0 18 4 40 9 49 26 50 37 351 17 507 -24 195 -57
358 -77 380 -5 5 -9 22 -9 37 0 15 -4 28 -10 28 -5 0 -10 9 -10 20 0 11 -6 20
-12 20 -9 0 -8 4 2 10 10 6 11 10 3 10 -7 0 -13 9 -13 21 0 11 -4 17 -10 14
-6 -4 -10 5 -10 19 0 14 -4 26 -10 26 -5 0 -10 9 -10 19 0 11 -4 23 -10 26 -5
3 -10 15 -10 26 0 10 -4 19 -9 19 -5 0 -14 14 -21 30 -7 17 -17 30 -22 30 -5
0 -7 4 -4 9 3 4 -3 19 -14 32 -31 38 -34 42 -49 72 -8 15 -18 27 -23 27 -4 0
-8 7 -8 16 0 8 -4 12 -10 9 -5 -3 -10 1 -10 9 0 9 -4 16 -10 16 -5 0 -10 9
-10 21 0 11 -4 17 -10 14 -6 -3 -10 -1 -10 5 0 17 -279 290 -296 290 -8 0 -12
5 -9 10 3 6 -3 10 -13 10 -11 0 -22 7 -25 14 -3 8 -21 23 -39 32 -18 9 -36 22
-40 28 -5 6 -8 7 -8 1 0 -7 -3 -7 -8 0 -9 13 -111 75 -123 75 -5 0 -9 4 -9 9
0 5 -13 11 -29 14 -16 3 -36 13 -44 22 -9 8 -27 15 -41 15 -14 0 -26 5 -26 10
0 6 -9 10 -20 10 -11 0 -20 4 -20 8 0 4 -12 9 -26 10 -15 1 -32 6 -38 10 -10
7 -63 25 -115 38 -204 50 -350 67 -531 60 -80 -3 -161 -8 -180 -11 -19 -3 -49
-7 -66 -9 -33 -4 -101 -19 -194 -43 -30 -8 -67 -17 -82 -20 -15 -3 -25 -9 -22
-14 3 -5 -6 -9 -20 -9 -14 0 -28 -4 -31 -10 -3 -5 -20 -10 -36 -10 -18 0 -28
-4 -24 -10 4 -6 -5 -10 -20 -10 -15 0 -33 -7 -42 -15 -8 -8 -19 -13 -24 -10
-5 4 -9 3 -9 -2 0 -9 -48 -33 -67 -33 -7 0 -13 -4 -13 -9 0 -5 -8 -11 -18 -15
-9 -3 -35 -17 -57 -31 -22 -13 -48 -27 -57 -31 -10 -3 -18 -9 -18 -13 0 -3
-13 -12 -28 -19 -16 -6 -38 -21 -50 -32 -12 -11 -24 -20 -27 -20 -3 0 -20 -13
-38 -30 -18 -16 -35 -30 -38 -30 -13 0 -169 -150 -169 -162 0 -5 -7 -8 -16 -8
-8 0 -12 -4 -9 -10 3 -5 -1 -10 -9 -10 -8 0 -17 -9 -21 -19 -3 -11 -12 -22
-20 -25 -8 -3 -15 -11 -15 -18 0 -8 -9 -20 -20 -28 -11 -8 -20 -19 -20 -25 0
-6 -9 -17 -20 -25 -11 -8 -20 -20 -20 -28 0 -7 -4 -10 -10 -7 -6 4 -10 -5 -10
-20 0 -14 -4 -24 -9 -21 -5 3 -14 -8 -21 -24 -7 -17 -16 -30 -21 -30 -5 0 -9
-8 -9 -19 0 -10 -7 -24 -15 -31 -8 -7 -15 -19 -15 -26 0 -8 -4 -14 -8 -14 -5
0 -14 -16 -22 -35 -8 -19 -17 -35 -22 -35 -4 0 -8 -11 -8 -25 0 -14 -4 -25
-10 -25 -5 0 -10 -9 -10 -20 0 -11 -3 -20 -8 -20 -9 0 -32 -72 -32 -100 0 -12
-4 -18 -10 -15 -6 4 -10 -11 -10 -39 0 -25 -5 -48 -10 -51 -6 -3 -10 -19 -10
-35 0 -16 -4 -31 -9 -34 -13 -8 -41 -171 -41 -241 -2 -283 6 -474 21 -490 5
-5 9 -24 9 -41 0 -18 4 -35 9 -38 5 -3 9 -27 10 -53 3 -71 4 -73 13 -73 4 0 8
-9 8 -20 0 -11 5 -20 10 -20 6 0 10 -18 10 -40 0 -22 5 -40 10 -40 6 0 10 -8
10 -18 0 -10 3 -22 7 -26 4 -3 8 -16 10 -27 4 -25 38 -110 64 -160 10 -20 19
-46 19 -58 0 -12 7 -24 15 -27 8 -4 12 -10 9 -15 -3 -5 0 -9 7 -9 7 0 10 -3 6
-6 -3 -4 5 -28 19 -55 13 -27 21 -49 18 -49 -4 0 2 -8 12 -17 11 -10 26 -37
34 -60 7 -24 18 -43 23 -43 6 0 7 -18 4 -42 -3 -26 -2 -37 3 -28 14 23 23 4
10 -21 -7 -12 -10 -38 -7 -58 3 -20 3 -30 0 -23 -6 16 -23 16 -23 -1 0 -7 -10
-24 -21 -36 -17 -19 -19 -25 -8 -31 11 -7 8 -13 -10 -29 -12 -11 -20 -25 -16
-30 3 -6 1 -19 -5 -28 -10 -16 -11 -16 -6 -1 3 12 1 15 -10 11 -7 -3 -14 -14
-14 -24 0 -13 -7 -19 -22 -19 -33 0 -44 -10 -62 -54 -11 -26 -21 -36 -30 -33
-9 4 -17 -2 -21 -14 -4 -10 -11 -19 -16 -19 -5 0 -9 -6 -9 -14 0 -16 -104 -71
-118 -62 -6 4 -14 1 -19 -7 -11 -18 -59 -47 -78 -47 -8 0 -15 -6 -15 -14 0 -8
-6 -17 -13 -20 -9 -5 -9 -7 1 -12 19 -9 14 -31 -12 -52 -13 -10 -36 -36 -50
-57 -15 -21 -39 -50 -55 -64 -16 -14 -31 -35 -35 -46 -9 -30 -55 -54 -121 -61
-49 -6 -55 -9 -41 -19 14 -11 14 -13 2 -18 -8 -3 -16 -1 -18 5 -4 10 -53 -14
-68 -33 -3 -3 -27 -18 -55 -33 -65 -36 -75 -46 -46 -46 12 0 19 -4 16 -10 -3
-5 -14 -10 -24 -10 -10 0 -38 -11 -63 -24 -31 -17 -50 -21 -61 -14 -17 9 -29
4 -102 -41 -16 -10 -33 -16 -38 -14 -4 3 -6 -1 -5 -9 2 -8 -8 -14 -24 -16 -16
-2 -28 -8 -28 -13 0 -5 -9 -9 -20 -9 -11 0 -20 -4 -20 -9 0 -5 -15 -14 -33
-21 -17 -7 -41 -16 -52 -21 -69 -29 -96 -37 -134 -37 -40 -1 -152 -30 -213
-55 l-28 -12 0 -4677 0 -4678 8335 0 8336 0 -3 6018 c-3 5619 -4 6020 -20
6035 -9 9 -28 17 -41 17 -14 0 -30 7 -37 15 -6 8 -15 14 -18 13 -11 -3 -172
76 -172 84 0 5 9 8 21 8 11 0 18 4 15 8 -3 5 -18 7 -35 4 -20 -3 -35 2 -50 17
-12 12 -40 32 -62 44 -22 12 -48 27 -58 32 -24 14 -76 53 -121 92 -20 18 -40
30 -44 26 -3 -3 -6 -1 -6 5 0 7 -9 12 -20 12 -11 0 -20 5 -20 10 0 6 7 10 15
10 13 0 14 4 5 21 l-11 20 -18 -20 c-23 -26 -27 -26 -34 -1 -4 14 0 20 11 20
12 0 10 4 -7 13 -13 6 -29 21 -35 32 -6 11 -16 23 -22 27 -30 19 -85 83 -75
86 18 6 13 22 -7 22 -21 0 -86 66 -77 79 6 10 -59 81 -75 81 -5 0 -7 6 -4 14
3 7 -5 22 -18 32 -13 11 -30 35 -38 54 -21 54 -42 81 -56 76 -16 -6 -38 29
-29 44 4 6 1 9 -7 8 -8 -2 -13 7 -14 22 -1 14 -16 49 -33 79 -37 61 -60 159
-41 171 9 6 8 15 -3 36 -8 16 -20 52 -26 81 -7 28 -19 60 -26 70 -8 10 -15 42
-15 73 0 30 -6 103 -14 161 -10 75 -13 160 -9 289 5 149 4 184 -8 192 -11 7
-11 11 -1 15 17 7 15 23 -3 23 -13 0 -13 3 -3 20 10 16 10 24 1 39 -9 15 -10
20 0 24 9 3 9 12 0 40 -6 20 -8 37 -4 37 4 0 6 14 3 30 -2 17 0 30 6 30 5 0
12 19 16 43 4 23 9 57 11 75 4 22 0 38 -11 49 -11 11 -14 26 -10 46 3 16 6 38
6 48 0 11 7 19 16 19 13 0 15 7 11 29 -4 19 -2 31 6 34 9 3 9 9 -1 26 -16 27
-16 68 1 74 9 3 9 9 -1 26 -9 15 -10 27 -2 41 13 24 13 70 0 70 -6 0 -10 23
-9 55 1 30 6 52 11 49 4 -3 8 1 8 10 0 8 3 23 6 33 5 14 4 15 -4 4 -8 -11 -12
-6 -17 22 -5 23 -3 42 4 51 9 11 9 15 -1 19 -10 4 -10 7 0 14 7 6 14 39 16 84
2 42 9 86 17 100 7 13 14 29 15 34 1 6 5 27 9 48 4 23 3 37 -3 37 -5 0 -12 18
-14 40 -2 27 0 40 9 40 8 0 12 16 11 48 -2 50 9 139 19 155 3 5 8 47 12 93 5
65 4 84 -6 84 -7 0 -13 5 -13 10 0 6 7 10 15 10 21 0 34 59 28 132 -4 52 -2
70 13 93 13 21 15 30 6 33 -16 5 -16 62 1 62 7 1 5 6 -5 14 -17 12 -17 14 2
31 11 10 20 26 20 36 0 9 6 19 13 22 9 3 9 9 -2 28 -10 16 -10 24 -2 27 6 2
11 10 11 18 0 9 -4 12 -10 9 -6 -4 -7 6 -4 25 l7 30 -7767 0 -7766 0 0 -2151z
m3625 -775 c265 -41 528 -148 745 -302 113 -80 285 -244 369 -350 204 -259
342 -598 366 -902 7 -87 -3 -114 -32 -88 -10 8 -36 15 -58 15 -22 0 -30 -2
-17 -4 27 -5 30 -23 3 -23 -22 0 -31 19 -31 63 0 36 -23 160 -46 251 -39 155
-132 360 -224 496 -292 431 -768 696 -1285 717 -368 15 -717 -90 -1019 -305
-106 -75 -276 -245 -359 -357 -155 -211 -263 -476 -300 -740 -11 -77 -16 -90
-33 -91 -68 -4 -88 -7 -66 -11 20 -4 33 -33 13 -33 -27 0 -71 14 -71 22 0 6 7
8 15 4 8 -3 15 -1 15 4 0 6 -3 10 -7 10 -23 0 -7 153 33 313 93 372 310 708
612 949 267 212 606 348 947 378 113 10 312 3 430 -16z m10040 -14 c833 -179
1411 -878 1418 -1715 1 -148 -6 -209 -26 -234 -9 -12 -9 -13 1 -7 6 4 12 2 12
-3 0 -6 -3 -11 -7 -11 -98 -6 -119 -4 -104 8 14 11 13 12 -6 3 -15 -8 -20 -17
-16 -32 4 -15 3 -20 -5 -15 -16 10 -16 -26 1 -43 10 -10 9 -11 -4 -6 -9 3 -16
1 -16 -7 0 -59 -74 -270 -139 -400 -244 -486 -709 -817 -1251 -888 -131 -18
-400 -8 -530 19 -206 43 -420 133 -596 253 -126 85 -343 303 -426 427 -101
152 -175 313 -222 481 -12 41 -26 81 -33 89 -9 12 -8 13 4 6 12 -7 13 -6 3 7
-7 8 -10 17 -8 20 10 9 -15 59 -25 53 -6 -4 -9 -1 -8 7 2 9 -12 13 -49 14 -33
1 -53 -3 -54 -10 -1 -6 -5 3 -8 19 -4 17 -3 36 3 44 8 11 8 13 0 8 -17 -10
-24 40 -24 177 1 358 102 693 301 992 101 152 321 372 473 473 230 153 456
241 731 286 137 22 478 14 610 -15z m-10275 -620 c0 -5 -7 -13 -16 -18 -14 -8
-13 -10 5 -15 16 -4 21 -1 21 14 0 21 3 22 49 13 17 -4 31 -12 31 -19 0 -16
23 -25 64 -25 26 0 34 -5 43 -30 8 -20 18 -30 32 -30 12 0 21 5 21 11 0 20 45
5 48 -17 2 -13 16 -26 37 -34 40 -16 45 -30 13 -31 l-23 0 22 -9 c13 -5 46
-27 74 -50 50 -39 50 -40 22 -41 -16 -1 -21 -3 -10 -6 9 -2 17 -11 17 -19 0
-8 9 -14 21 -14 11 0 18 4 14 9 -3 5 -1 12 5 16 6 4 10 -7 10 -25 0 -24 4 -31
14 -27 8 3 17 0 20 -8 3 -10 0 -12 -12 -9 -9 3 -5 -2 11 -11 21 -12 25 -19 18
-33 -12 -21 -48 -52 -61 -52 -6 0 -10 -5 -10 -11 0 -5 -4 -8 -8 -5 -5 3 -9 0
-9 -7 0 -7 -5 -31 -11 -55 -18 -76 14 -145 79 -172 16 -7 29 -17 29 -22 0 -5
3 -7 8 -5 4 3 15 1 26 -2 15 -6 8 -11 -30 -23 l-49 -17 94 0 c79 -1 92 -3 87
-16 -3 -9 -6 -154 -6 -324 l-1 -309 -27 -8 c-15 -4 -31 -8 -37 -8 -5 -1 -16
-7 -23 -13 -7 -7 -20 -13 -28 -13 -9 0 -22 -7 -31 -16 -34 -34 -38 -3 -41 356
-3 296 -5 350 -17 350 -21 0 -23 -22 -29 -250 -6 -224 -9 -270 -21 -315 -9
-34 -44 -77 -56 -69 -5 3 -9 1 -9 -5 0 -5 -13 -18 -29 -27 -17 -10 -28 -20
-26 -24 2 -3 -5 -11 -15 -18 -16 -10 -18 -9 -14 3 6 15 -11 22 -18 7 -1 -4
-21 -19 -42 -32 -22 -13 -37 -19 -33 -13 3 5 0 19 -8 29 -8 10 -15 28 -15 39
0 11 -8 29 -17 40 l-15 20 5 -20 c3 -11 22 -73 42 -139 20 -65 34 -120 31
-123 -2 -2 -12 18 -21 46 -9 28 -21 51 -25 51 -5 0 -6 7 -3 17 4 11 3 14 -5 9
-7 -4 -12 -2 -12 4 0 7 -6 8 -19 0 -11 -5 -41 -10 -68 -11 -36 0 -43 -3 -28
-9 18 -8 17 -9 -6 -7 -20 1 -25 5 -21 17 5 13 4 13 -13 0 -10 -8 -16 -10 -12
-3 4 6 3 14 -2 17 -5 3 -12 21 -15 41 -4 19 -11 37 -15 39 -5 3 -126 6 -270 6
-260 1 -302 -4 -284 -33 3 -6 1 -7 -6 -3 -6 4 -9 12 -6 17 3 5 -1 6 -10 3 -9
-4 -24 1 -33 9 -10 9 -32 17 -49 19 -17 1 -30 5 -27 9 2 4 -2 9 -10 12 -9 4
-18 -12 -30 -50 -10 -30 -19 -53 -22 -51 -7 7 20 91 342 1080 l25 77 42 4 c39
3 38 4 -11 5 -53 2 -82 -12 -82 -38 0 -6 -4 -9 -8 -6 -5 3 -9 0 -10 -7 -1 -17
-7 -38 -20 -68 -13 -34 -33 -105 -31 -116 1 -4 1 -15 0 -23 -1 -13 -2 -13 -11
0 -7 11 -10 8 -10 -16 0 -17 -3 -34 -7 -38 -4 -4 -9 -19 -11 -34 -2 -15 -7
-31 -13 -36 -5 -6 -9 -21 -10 -35 0 -24 -1 -24 -9 -6 -6 15 -9 7 -9 -30 -1
-38 -4 -47 -12 -35 -9 12 -10 11 -6 -8 3 -12 -1 -29 -10 -37 -11 -12 -12 -15
-1 -16 10 0 10 -2 1 -6 -7 -2 -13 -13 -13 -24 0 -13 -7 -19 -21 -19 -23 0 -23
7 -5 173 2 20 0 40 -5 43 -5 3 -9 -10 -10 -28 -1 -31 -1 -32 -9 -8 -15 46 -12
62 10 55 14 -5 20 -2 20 9 0 9 -8 17 -17 17 -10 1 -4 5 12 9 27 7 28 8 6 9
-20 1 -22 4 -13 13 7 7 12 27 12 45 0 18 5 33 10 33 6 0 10 5 10 11 0 6 -6 9
-13 6 -10 -4 -13 5 -13 28 1 20 5 31 12 28 17 -6 29 18 15 27 -9 5 -8 12 6 25
10 10 18 23 18 29 1 22 33 82 54 100 11 11 21 27 21 37 0 10 6 22 13 26 7 4
21 19 30 33 16 23 17 23 17 3 0 -11 7 -23 15 -26 17 -7 30 9 15 18 -16 10 12
45 37 45 13 0 23 5 23 10 0 6 -9 10 -21 10 -12 0 -17 4 -14 11 4 6 14 8 22 5
8 -3 11 -1 8 4 -3 6 1 10 10 10 10 0 15 6 12 13 -3 8 7 21 24 31 16 9 29 14
29 11 0 -3 17 6 37 20 42 28 80 36 47 9 -18 -14 -18 -15 -1 -10 11 3 30 9 43
12 14 4 27 16 30 30 5 20 12 24 45 24 21 0 39 5 39 10 0 6 25 10 55 10 30 0
55 -4 55 -10z m673 -490 c66 -74 2 -184 -97 -166 -63 12 -101 88 -72 145 35
67 118 77 169 21z m-2294 -945 c31 -150 64 -245 141 -400 354 -717 1186 -1063
1947 -810 109 36 267 111 361 171 350 224 599 576 703 993 5 23 12 41 14 39 9
-8 -37 -176 -72 -263 -148 -372 -404 -660 -753 -848 -379 -204 -861 -244
-1275 -106 -543 181 -962 651 -1074 1206 -12 55 -21 107 -21 114 0 30 10 -3
29 -96z m1926 -3934 c358 -73 672 -245 925 -507 225 -233 367 -487 444 -795
51 -202 73 -497 41 -546 -10 -14 -22 -22 -31 -19 -8 3 -14 -1 -14 -9 0 -18 12
-19 27 -4 8 8 13 8 17 0 4 -6 0 -11 -8 -11 -10 0 -16 -9 -17 -22 l0 -23 -9 23
c-5 12 -14 22 -20 22 -6 0 -9 4 -6 9 3 5 -2 8 -11 7 -10 0 -19 9 -23 24 -6 25
-6 25 -12 3 -3 -13 -2 -23 3 -23 5 0 9 -5 9 -11 0 -6 -8 -8 -19 -4 -16 5 -19
-2 -25 -57 -19 -162 -73 -335 -166 -523 -236 -477 -694 -807 -1225 -884 -38
-5 -158 -8 -265 -7 -216 4 -298 18 -486 81 -400 133 -747 439 -942 830 -56
113 -142 388 -142 457 0 15 -7 33 -15 41 -8 8 -11 18 -7 21 3 4 8 17 9 30 3
18 -2 25 -19 29 -21 6 -22 5 -5 -7 16 -12 16 -14 1 -20 -8 -3 -33 -6 -55 -6
-47 0 -57 29 -11 31 20 1 17 3 -13 8 l-40 6 0 145 c0 80 6 183 13 230 114 746
677 1338 1407 1478 159 31 151 30 375 27 164 -2 227 -7 315 -24z m9874 13
c196 -28 331 -70 516 -158 509 -244 864 -706 969 -1265 9 -46 14 -86 11 -89
-3 -3 -5 2 -5 12 0 9 -4 15 -9 11 -5 -3 -11 5 -13 17 -2 19 -9 23 -38 23 -20
-1 -41 6 -48 15 -8 8 -11 9 -7 3 3 -7 1 -13 -4 -13 -6 0 -11 -5 -11 -11 0 -5
4 -7 10 -4 6 4 7 -1 3 -11 -4 -12 -3 -15 5 -10 9 5 9 1 3 -17 -6 -14 -8 -28
-5 -31 2 -3 1 -4 -3 -1 -3 3 -8 15 -9 28 -1 12 -7 41 -13 65 -6 24 -9 47 -6
53 4 5 2 9 -3 9 -4 0 -19 37 -32 83 -149 519 -582 951 -1105 1102 -166 48
-255 59 -460 59 -212 0 -330 -17 -506 -75 -517 -170 -926 -604 -1069 -1134
-24 -88 -28 -106 -29 -118 -1 -5 -5 -5 -11 -2 -5 3 -10 1 -10 -4 0 -6 5 -11
10 -11 6 0 10 -4 10 -10 0 -20 -20 -9 -26 14 -5 22 -10 24 -42 19 -57 -7 -60
-10 -55 -37 3 -14 1 -26 -4 -26 -22 0 -3 125 43 276 100 334 282 608 558 847
232 200 546 340 874 391 122 19 381 19 511 0z m411 -1547 l0 -524 -26 -12
c-14 -6 -30 -9 -35 -6 -5 4 -23 -1 -41 -9 -18 -8 -43 -17 -55 -21 l-23 -6 0
256 0 255 -27 12 c-16 6 -69 13 -119 16 -106 5 -168 -11 -225 -57 -131 -108
-156 -416 -44 -549 61 -73 174 -109 303 -98 40 4 79 9 87 13 9 3 15 -1 15 -10
0 -22 -66 -30 -188 -25 -84 3 -104 8 -150 33 -50 27 -112 90 -112 113 0 17
-161 20 -168 3 -4 -10 -8 -9 -16 5 -6 11 -11 22 -12 27 -1 4 -2 8 -4 10 -16
21 -25 242 -11 309 36 169 150 304 302 357 100 34 249 36 352 5 16 -5 17 10
17 210 l0 216 90 0 90 0 0 -523z m-1152 493 l22 0 -1 -552 c-1 -304 -3 -545
-6 -535 -2 9 -9 17 -14 17 -6 0 -8 4 -5 8 2 4 -10 6 -28 4 -21 -2 -39 2 -49
13 -12 12 -27 15 -52 11 l-35 -6 0 519 0 520 38 4 c20 3 53 3 72 1 19 -2 45
-4 58 -4z m2072 -1054 c-76 -348 -269 -664 -543 -891 -219 -181 -445 -288
-747 -352 -132 -28 -469 -25 -608 5 -163 36 -257 68 -407 142 -415 204 -742
604 -846 1035 -27 114 -22 128 7 17 120 -464 445 -854 879 -1058 451 -211 968
-202 1415 26 162 83 275 165 405 295 214 214 363 476 425 745 27 114 28 120
34 120 2 0 -4 -38 -14 -84z m-4085 -1821 c14 -13 25 -29 25 -35 0 -12 24 -40
34 -40 3 0 6 14 6 31 0 30 2 31 30 26 22 -5 30 -3 30 8 0 8 5 15 10 15 6 0 10
-4 10 -10 0 -5 18 -10 40 -10 29 0 40 -4 40 -15 0 -10 14 -17 41 -21 28 -5 39
-11 35 -20 -3 -8 1 -14 9 -14 7 0 22 -11 33 -25 11 -14 25 -25 31 -25 6 0 11
-9 11 -20 0 -11 6 -20 13 -21 6 0 41 -33 77 -73 52 -58 66 -69 68 -53 2 11 -2
23 -9 28 -8 4 -10 11 -7 15 9 9 58 -42 58 -61 0 -8 9 -15 20 -15 11 0 20 -4
20 -10 0 -14 37 -13 42 2 7 21 38 0 38 -27 0 -20 5 -25 25 -25 29 0 75 -40 75
-65 0 -8 7 -15 15 -15 10 0 15 -10 15 -28 0 -30 25 -134 39 -167 14 -31 22
-85 12 -85 -12 0 -21 25 -21 56 0 19 -5 24 -25 24 -16 0 -25 -6 -25 -15 0 -8
-7 -15 -15 -15 -8 0 -15 -4 -15 -10 0 -5 8 -10 18 -10 25 0 52 -35 52 -67 0
-27 48 -174 60 -183 3 -3 9 -13 13 -22 3 -10 13 -18 22 -18 10 0 15 -10 15
-29 0 -21 6 -31 23 -36 l22 -8 -22 -4 c-13 -2 -23 -9 -23 -14 0 -5 -7 -9 -16
-9 -28 0 -44 -27 -44 -76 0 -46 -1 -46 -28 -41 -15 3 -34 2 -42 -4 -10 -6 -11
-9 -2 -9 6 0 12 -11 12 -25 0 -14 -4 -25 -10 -25 -5 0 -10 -8 -10 -18 0 -10
-9 -24 -20 -32 -11 -8 -20 -22 -20 -32 0 -10 -4 -18 -10 -18 -5 0 -10 -7 -10
-16 0 -18 -23 -44 -40 -44 -28 0 -75 -88 -65 -120 9 -30 -4 -45 -21 -23 -7 10
-14 13 -14 6 0 -6 -9 -15 -21 -18 -11 -4 -25 -18 -31 -31 -7 -14 -17 -23 -24
-20 -6 2 -22 -7 -35 -21 -37 -39 -146 -83 -203 -82 -34 0 -130 42 -120 52 3 3
-6 17 -20 30 -14 13 -26 27 -26 31 0 4 -18 24 -40 46 -22 22 -40 44 -40 50 0
6 -22 34 -50 63 -27 28 -55 68 -61 87 -6 19 -14 44 -19 55 -19 45 -31 97 -26
111 3 8 2 13 -3 10 -4 -3 -18 36 -30 87 -12 51 -25 99 -28 107 -3 8 -7 77 -8
153 -1 75 -5 140 -8 144 -4 3 -7 0 -8 -8 0 -8 -7 15 -15 51 -14 67 -10 127 7
85 6 -17 8 -17 8 -2 1 9 6 17 11 17 6 0 10 73 10 200 0 189 1 200 19 200 11 0
21 9 24 21 3 12 10 18 17 14 6 -4 18 1 25 11 19 25 18 31 -5 37 -13 3 -20 14
-20 30 0 14 -6 27 -12 30 -8 3 -2 9 12 15 14 5 32 22 39 36 18 32 25 32 56 1z
m-155 -1175 c0 -11 5 -20 10 -20 6 0 10 -9 10 -19 0 -11 5 -23 10 -26 6 -3 10
-26 10 -51 0 -24 5 -44 10 -44 6 0 10 -22 10 -48 0 -36 5 -51 20 -62 11 -8 20
-22 20 -32 0 -10 5 -18 10 -18 6 0 10 -13 10 -30 0 -23 4 -30 20 -30 12 0 20
-7 20 -16 0 -9 14 -29 30 -44 18 -17 30 -38 30 -54 0 -19 5 -26 20 -26 11 0
20 -4 20 -10 0 -5 14 -10 30 -10 23 0 30 -4 30 -20 0 -16 7 -20 30 -20 23 0
30 -4 30 -20 0 -18 7 -20 80 -20 47 0 80 4 80 10 0 6 14 10 30 10 17 0 30 5
30 10 0 6 22 10 48 10 36 0 51 5 62 20 10 14 26 20 52 20 36 0 38 2 38 30 0
17 5 30 10 30 6 0 10 8 10 18 0 10 9 24 20 32 14 10 20 26 20 50 0 24 6 40 20
50 11 8 20 22 20 32 0 13 8 18 26 18 21 0 24 -3 19 -22 -7 -25 -27 -70 -35
-78 -16 -16 -40 -72 -35 -80 3 -6 2 -10 -4 -10 -5 0 -22 -25 -36 -55 -24 -47
-31 -55 -56 -55 -15 0 -30 -4 -33 -9 -3 -5 -36 -14 -72 -21 -37 -7 -90 -21
-118 -31 -61 -23 -101 -24 -140 -4 -15 8 -39 15 -52 15 -13 0 -24 3 -24 8 0 8
-43 28 -85 38 -16 4 -36 13 -43 21 -7 7 -21 13 -30 14 -11 0 -12 2 -4 6 22 9
13 33 -13 33 -22 0 -25 3 -19 25 5 22 3 25 -20 25 -20 0 -26 5 -26 22 0 12
-12 65 -26 117 -14 53 -31 115 -37 139 -6 23 -15 42 -20 42 -5 0 -6 18 -2 40
6 33 4 40 -9 40 -9 0 -16 4 -16 9 0 5 -3 23 -6 40 -4 20 -3 31 5 31 6 0 11 -9
11 -20z m-2212 -1334 c38 -20 78 -65 96 -107 l15 -37 -59 -26 c-32 -15 -88
-30 -123 -34 -67 -8 -181 -2 -194 11 -13 14 -5 87 14 120 39 68 181 109 251
73z m-2390 -153 c-3 -148 -10 -172 -40 -140 -11 12 -17 12 -45 -1 -41 -20 -87
-2 -110 41 -22 43 -13 125 17 149 24 20 81 24 111 8 18 -10 19 -7 19 40 0 47
2 50 25 50 l26 0 -3 -147z m1440 6 c2 -108 0 -139 -12 -148 -11 -9 -17 -8 -29
3 -13 14 -19 14 -47 -1 -30 -14 -35 -14 -66 1 -40 18 -54 49 -54 112 0 60 32
94 89 94 22 0 43 -4 46 -10 15 -24 25 -6 25 41 0 47 2 50 23 47 21 -3 22 -7
25 -139z m172 89 c4 -39 8 -46 20 -38 8 5 31 10 51 10 97 0 123 -162 32 -205
-33 -16 -39 -16 -69 -2 -28 14 -34 14 -44 2 -6 -8 -18 -11 -26 -8 -11 4 -14
34 -14 150 0 144 0 144 23 141 18 -2 23 -11 27 -50z m1138 35 c-2 -12 -13 -18
-28 -18 -33 0 -41 -40 -11 -48 27 -7 28 -37 1 -37 -18 0 -20 -7 -20 -79 0 -87
-14 -115 -44 -86 -12 12 -16 36 -16 90 0 64 -2 73 -20 78 -25 7 -26 27 -1 34
11 3 22 17 26 31 10 42 24 52 72 52 37 0 44 -3 41 -17z m982 -61 l5 -73 34 35
c37 38 71 47 71 19 0 -9 -10 -27 -21 -39 l-22 -23 32 -50 c34 -52 37 -84 10
-89 -11 -2 -28 15 -48 48 -26 43 -34 50 -46 40 -8 -7 -15 -25 -15 -40 0 -36
-24 -57 -45 -40 -12 10 -15 38 -15 135 0 140 4 157 34 153 19 -3 22 -11 26
-76z m436 -23 c13 -13 24 -29 24 -36 0 -24 -30 -26 -54 -4 -12 11 -32 21 -44
21 -24 0 -52 -35 -52 -65 0 -30 28 -65 53 -65 11 0 32 11 47 25 32 30 56 20
46 -20 -14 -57 -123 -69 -173 -19 -18 18 -23 34 -23 76 1 58 12 80 56 103 37
20 89 13 120 -16z m221 6 c12 -8 27 -33 33 -56 16 -60 -3 -108 -53 -133 -78
-38 -157 12 -157 99 0 94 96 143 177 90z m107 10 c8 -8 17 -11 20 -6 11 17 57
22 85 8 24 -12 32 -12 52 -1 35 20 57 17 84 -11 22 -21 25 -33 25 -103 0 -83
-12 -108 -44 -96 -13 5 -16 21 -16 78 0 81 -8 101 -38 92 -24 -8 -32 -33 -32
-107 0 -43 -4 -58 -16 -63 -32 -12 -44 13 -44 91 0 56 -4 75 -15 79 -30 12
-45 -15 -45 -80 0 -68 -17 -103 -44 -93 -13 5 -16 23 -16 110 0 120 8 138 44
102z m-4288 -20 c19 -19 24 -34 22 -58 l-3 -32 -71 -5 c-69 -5 -71 -6 -63 -27
12 -33 52 -39 88 -14 38 27 53 27 49 -1 -4 -33 -66 -61 -114 -52 -54 10 -84
46 -84 101 0 79 30 112 103 113 38 0 53 -5 73 -25z m195 15 c21 -12 26 -45 8
-55 -6 -4 -21 3 -34 15 -18 17 -31 21 -50 16 -40 -10 -25 -29 41 -51 47 -16
60 -25 62 -44 7 -47 -6 -70 -48 -81 -64 -17 -130 9 -130 52 0 25 32 23 55 -2
24 -27 70 -24 70 5 0 14 -11 22 -44 32 -78 22 -101 63 -61 103 22 22 97 28
131 10z m279 0 c13 -7 21 -7 25 0 3 5 15 10 26 10 18 0 19 -8 19 -121 0 -66
-5 -129 -10 -139 -22 -41 -141 -47 -176 -9 -18 20 -13 49 9 49 8 0 22 -9 32
-20 10 -11 27 -20 38 -20 26 0 57 28 57 52 0 19 -15 24 -25 8 -8 -13 -61 -13
-86 0 -52 28 -63 129 -18 176 24 26 75 32 109 14z m155 0 c4 -7 12 -7 25 0 29
15 81 12 102 -7 15 -13 18 -32 18 -104 0 -61 -4 -89 -12 -92 -30 -10 -38 6
-38 70 0 72 -12 103 -40 103 -32 0 -50 -39 -50 -106 0 -62 -9 -77 -37 -66 -9
3 -13 34 -13 108 0 96 1 104 19 104 11 0 23 -5 26 -10z m351 -15 c19 -19 24
-34 22 -58 l-3 -32 -72 -3 c-40 -2 -73 -7 -73 -12 0 -16 39 -50 56 -50 9 0 29
10 46 21 35 25 57 14 39 -19 -26 -49 -142 -47 -175 3 -19 28 -21 97 -4 128 18
35 40 46 91 47 38 0 53 -5 73 -25z m654 -42 c13 -38 26 -71 29 -76 4 -4 17 25
30 64 22 69 42 92 63 71 7 -7 -4 -48 -37 -134 -26 -68 -51 -128 -57 -135 -14
-18 -64 -26 -87 -14 -28 16 -16 41 20 41 45 0 46 32 4 135 -37 93 -38 115 -6
115 15 0 24 -15 41 -67z m953 55 c3 -10 7 -10 20 0 24 20 72 12 72 -13 0 -16
-7 -20 -33 -20 -42 0 -52 -17 -52 -91 0 -44 -5 -65 -16 -75 -28 -23 -44 14
-44 102 0 43 3 84 6 93 7 19 41 21 47 4z m273 -13 c19 -19 24 -34 22 -58 l-3
-32 -72 -3 c-40 -2 -73 -6 -73 -10 0 -18 33 -52 51 -52 11 0 33 10 49 22 36
26 59 14 41 -20 -25 -48 -142 -47 -176 1 -9 12 -15 43 -15 73 0 73 30 104 100
104 41 0 56 -5 76 -25z m221 3 c11 -13 24 -33 28 -46 11 -38 -10 -52 -81 -52
-68 0 -81 -12 -48 -44 21 -21 46 -20 77 4 32 25 47 25 47 0 0 -29 -47 -55 -99
-54 -37 1 -49 6 -74 34 -26 29 -29 38 -24 83 6 68 38 97 106 97 37 0 52 -5 68
-22z m98 12 c4 -7 12 -7 25 0 21 11 70 13 95 4 23 -9 45 -57 45 -99 0 -82 -66
-133 -129 -100 l-31 16 0 -50 c0 -48 -17 -70 -41 -55 -5 3 -9 70 -9 150 0 136
1 144 19 144 11 0 23 -5 26 -10z m-885 -89 c0 -23 -38 -79 -70 -103 -36 -26
-125 -42 -184 -34 -37 6 -58 16 -83 41 -53 53 -46 61 54 56 94 -4 177 11 233
40 44 23 50 23 50 0z"/>
<path d="M13150 13611 c-370 -40 -708 -200 -969 -459 -105 -105 -150 -159
-225 -274 -99 -153 -170 -318 -221 -518 -23 -88 -32 -447 -15 -574 35 -262
137 -519 296 -744 78 -110 274 -298 397 -380 314 -210 683 -307 1035 -274 224
22 365 60 557 152 144 68 202 105 332 208 294 234 495 577 570 972 17 89 27
490 12 490 -4 0 -6 12 -4 28 5 42 -22 164 -60 278 -184 551 -657 963 -1232
1074 -121 23 -353 34 -473 21z m-106 -886 c205 -39 318 -173 303 -360 -3 -39
-15 -91 -27 -118 -27 -59 -88 -123 -143 -147 l-41 -19 29 -6 c17 -4 35 -8 41
-10 6 -2 17 5 25 16 7 10 19 19 26 19 7 0 13 4 13 8 0 5 9 19 20 32 11 13 20
29 20 37 0 7 5 13 12 13 6 0 8 3 5 7 -4 3 -1 13 5 21 12 14 18 33 20 62 1 8
10 30 20 48 10 18 18 48 18 67 0 33 2 35 35 35 35 0 51 -19 18 -21 -15 -1 -14
-2 2 -6 37 -9 104 -43 112 -57 4 -7 15 -16 23 -19 11 -4 10 -7 -7 -12 -13 -4
-23 -12 -23 -17 0 -6 7 -8 15 -5 10 5 14 -1 13 -21 0 -31 11 -112 18 -123 2
-4 0 -11 -6 -14 -8 -5 -8 -11 0 -20 10 -12 10 -27 -5 -143 -1 -12 -11 -32 -21
-43 -11 -12 -18 -30 -16 -40 2 -12 -3 -19 -12 -19 -9 0 -18 -11 -22 -25 -3
-13 -9 -24 -13 -23 -3 1 -14 -2 -25 -7 -12 -5 -21 -3 -27 6 -11 18 -11 18 -14
-76 -3 -94 -17 -154 -52 -214 -19 -32 -27 -40 -34 -30 -7 12 -9 12 -9 1 0 -11
-13 -13 -57 -7 -120 13 -155 12 -214 -6 -71 -22 -329 -28 -329 -8 0 8 22 9 73
4 87 -8 220 8 280 34 81 35 137 126 137 222 0 83 -57 171 -135 208 -50 23
-206 44 -295 39 l-55 -3 -5 -210 c-3 -115 -9 -204 -13 -197 -5 6 -19 12 -31
12 -23 0 -75 18 -123 42 l-23 11 0 538 0 538 38 6 c20 4 44 8 52 10 49 10 337
3 404 -10z m793 -399 c2 -2 7 -35 10 -73 l6 -69 56 56 c66 66 124 90 217 90
61 0 62 0 66 -30 3 -17 3 -55 0 -85 l-4 -55 -50 0 c-122 0 -209 -55 -249 -158
-20 -50 -23 -81 -26 -242 -5 -207 -6 -210 -75 -210 -21 0 -38 -4 -38 -10 0 -5
-18 -10 -40 -10 l-40 0 0 399 0 400 28 3 c31 5 133 0 139 -6z"/>
<path d="M12773 12583 l-33 -4 0 -216 0 -215 128 4 c142 5 186 20 236 78 33
40 41 69 41 151 0 56 -4 72 -28 106 -56 81 -181 116 -344 96z"/>
<path d="M3030 12408 c-45 -168 -70 -250 -81 -270 -5 -10 -9 -27 -9 -38 0 -11
-4 -28 -9 -38 -8 -15 -25 -66 -65 -197 l-13 -41 36 5 c20 3 28 6 19 9 -19 4
-26 52 -8 52 6 0 10 16 10 35 0 19 5 35 10 35 6 0 10 18 10 40 0 22 4 40 8 40
4 0 9 17 10 37 2 21 7 40 11 43 4 3 14 30 21 60 7 30 21 80 32 110 11 30 22
63 25 73 6 20 32 23 38 5 2 -7 18 -59 36 -116 17 -56 35 -105 40 -108 5 -3 9
-23 9 -45 0 -21 5 -39 10 -39 6 0 10 -13 10 -30 0 -16 5 -30 10 -30 6 0 10
-11 10 -24 0 -13 4 -26 9 -28 6 -1 11 -24 12 -50 2 -27 8 -48 13 -48 6 0 5 -4
-3 -9 -9 -6 -3 -10 21 -13 l35 -4 -19 61 c-10 33 -57 188 -104 345 -47 157
-89 288 -93 293 -4 4 -22 -48 -41 -115z"/>
<path d="M3160 7619 c-606 -79 -1097 -459 -1324 -1021 -34 -85 -80 -252 -91
-333 -19 -129 -6 -435 24 -581 176 -852 1004 -1418 1854 -1269 695 123 1231
679 1322 1373 18 135 21 394 6 487 -109 665 -632 1197 -1303 1326 -125 24
-375 33 -488 18z m-128 -883 c180 -33 293 -122 343 -271 20 -59 23 -218 6
-285 -17 -68 -44 -121 -58 -115 -19 6 -44 -5 -37 -17 4 -6 9 -6 14 2 4 7 12
10 18 6 5 -3 -4 -21 -21 -40 -22 -24 -34 -31 -39 -23 -5 8 -8 3 -8 -11 0 -13
-4 -21 -10 -17 -5 3 -7 12 -4 19 8 20 -12 28 -26 11 -11 -13 -10 -14 3 -9 12
4 15 1 12 -15 -6 -31 -14 -41 -33 -40 -14 0 -15 2 -2 7 30 14 21 31 -11 22
-18 -5 -40 -5 -55 1 -34 12 -47 11 -38 -3 5 -9 2 -9 -9 1 -14 11 -20 11 -32 1
-12 -10 -15 -9 -15 4 0 16 -1 16 -16 2 -19 -20 -19 -20 -51 1 l-26 17 24 7
c23 7 23 7 2 8 -29 1 -37 -14 -17 -33 8 -9 12 -16 7 -16 -5 0 -14 5 -21 12 -8
8 -15 8 -28 -3 -12 -9 -15 -10 -10 -2 5 10 1 11 -16 5 -13 -5 -34 -6 -48 -2
-14 4 -35 3 -46 -1 -12 -4 -25 -5 -28 -2 -3 3 -45 5 -94 4 l-89 -2 -7 28 c-4
15 -10 188 -13 385 l-5 356 78 7 c44 3 86 8 94 9 41 9 244 4 312 -8z m1089
-403 c108 -22 106 -19 85 -97 -10 -36 -21 -66 -25 -66 -3 0 -35 8 -71 16 -159
40 -305 13 -329 -58 -13 -39 -3 -78 27 -112 23 -25 92 -58 187 -90 116 -38
181 -78 216 -133 16 -26 29 -54 28 -62 0 -10 -4 -7 -9 7 -21 52 -64 93 -134
127 -39 19 -80 36 -91 38 -11 2 -32 9 -46 15 -15 6 -35 12 -45 14 -11 2 -22 7
-25 11 -4 5 -18 10 -32 10 -14 1 -23 5 -21 8 2 4 -3 10 -12 13 -8 3 -13 2 -10
-3 3 -5 -2 -12 -11 -15 -19 -8 -8 -22 22 -29 11 -3 -2 -4 -29 -3 -30 0 -51 6
-54 14 -2 6 1 12 8 12 6 0 8 -4 5 -10 -10 -17 1 -11 20 10 17 19 17 19 -11 12
-16 -5 -46 -7 -66 -6 -27 1 -38 -3 -38 -13 0 -9 5 -11 13 -6 21 13 36 12 30
-3 -5 -14 -28 -14 -50 -1 -7 4 -10 14 -6 22 3 11 1 13 -10 9 -18 -6 -26 5 -29
40 -1 14 -5 26 -9 26 -3 0 -5 30 -5 68 3 205 212 299 527 235z"/>
<path d="M2749 6358 c0 -123 -4 -248 -8 -280 l-7 -56 29 -6 c47 -10 152 -7
209 5 95 20 153 62 194 139 15 28 19 57 19 145 0 97 -3 115 -23 150 -54 91
-133 124 -299 125 l-113 0 -1 -222z"/>
<path d="M7990 13763 c-52 -8 -102 -18 -110 -21 -21 -7 -41 -11 -72 -14 -16
-1 -28 -5 -28 -8 0 -3 -12 -7 -27 -8 -16 -1 -29 -7 -31 -12 -2 -6 -17 -10 -32
-10 -16 0 -32 -4 -35 -10 -3 -5 -17 -10 -30 -10 -13 0 -27 -4 -30 -10 -3 -5
-15 -10 -26 -10 -10 0 -19 -4 -19 -8 0 -4 -20 -14 -45 -21 -25 -7 -45 -17 -45
-22 0 -5 -6 -9 -14 -9 -16 0 -119 -60 -124 -73 -2 -4 -8 -5 -13 -1 -5 3 -9 1
-9 -4 0 -5 -13 -15 -30 -22 -16 -7 -30 -16 -30 -21 0 -5 -7 -9 -16 -9 -8 0
-12 -4 -9 -10 3 -5 -3 -10 -14 -10 -12 0 -21 -4 -21 -10 0 -5 -6 -10 -13 -10
-7 0 -19 -9 -27 -20 -8 -11 -19 -20 -25 -20 -6 0 -19 -11 -29 -25 -10 -13 -22
-22 -27 -19 -5 3 -9 -2 -9 -10 0 -9 -4 -16 -8 -16 -12 0 -120 -109 -114 -115
3 -3 -3 -5 -13 -5 -10 0 -16 -3 -12 -6 5 -5 -23 -41 -70 -90 -7 -7 -13 -17
-13 -23 0 -6 -4 -11 -10 -11 -5 0 -10 -7 -10 -15 0 -8 -4 -15 -10 -15 -5 0
-10 -7 -10 -15 0 -8 -4 -15 -10 -15 -5 0 -10 -7 -10 -16 0 -9 -5 -12 -12 -8
-6 4 -8 3 -5 -3 4 -6 -5 -23 -18 -39 -14 -16 -25 -35 -25 -41 0 -7 -4 -13 -9
-13 -7 0 -33 -57 -31 -68 0 -1 -11 -23 -25 -47 -14 -25 -25 -52 -25 -60 0 -8
-4 -15 -8 -15 -5 0 -9 -6 -10 -12 -2 -25 -27 -88 -34 -88 -5 0 -8 -16 -8 -35
0 -19 -4 -35 -10 -35 -5 0 -10 -16 -10 -36 0 -21 -4 -33 -10 -29 -6 4 -10 -15
-10 -50 0 -35 -4 -54 -10 -50 -6 4 -10 -8 -11 -27 0 -18 -4 -46 -7 -63 -9 -40
-7 -492 3 -577 4 -37 11 -65 16 -62 5 3 9 -15 9 -40 0 -25 5 -46 10 -46 6 0
10 -18 10 -40 0 -22 5 -40 10 -40 6 0 10 -9 10 -20 0 -11 5 -29 10 -40 6 -11
15 -29 20 -40 6 -11 10 -29 10 -40 0 -11 5 -20 10 -20 6 0 10 -11 10 -25 0
-14 4 -25 10 -25 5 0 14 -18 20 -40 6 -22 15 -40 21 -40 6 0 7 -4 4 -10 -3 -5
-1 -10 5 -10 6 0 9 -4 5 -9 -3 -5 0 -15 7 -23 7 -7 19 -25 27 -40 8 -15 22
-37 33 -47 10 -11 18 -26 18 -33 0 -8 9 -20 20 -28 11 -8 20 -20 20 -27 0 -7
14 -26 30 -41 17 -16 30 -32 30 -36 0 -4 39 -46 87 -94 48 -48 86 -90 85 -94
-1 -5 5 -8 14 -8 8 0 12 -4 9 -10 -3 -5 0 -10 7 -10 7 0 28 -13 47 -28 18 -15
54 -44 80 -64 25 -21 51 -38 58 -38 7 0 13 -4 13 -9 0 -5 14 -14 30 -21 17 -7
30 -16 30 -21 0 -5 7 -9 16 -9 8 0 12 -4 9 -10 -3 -5 0 -10 7 -10 19 0 68 -23
68 -32 0 -5 4 -8 10 -8 5 0 40 -14 77 -31 88 -40 97 -44 168 -68 341 -116 767
-122 1120 -17 49 15 103 33 120 40 16 8 51 23 77 35 26 11 56 21 65 21 15 0
16 2 3 10 -11 7 -7 10 18 10 17 0 32 5 32 10 0 6 9 10 20 10 11 0 20 5 20 10
0 6 10 10 22 10 12 0 18 3 15 6 -4 4 14 18 40 32 25 13 51 28 57 33 6 5 42 33
80 61 79 61 306 281 306 297 0 6 7 11 15 11 13 0 16 5 15 26 -1 3 13 18 30 34
16 15 30 33 30 39 0 6 4 11 8 11 5 0 14 16 22 35 7 19 16 33 18 30 3 -3 11 7
18 21 30 57 59 111 78 144 11 19 22 39 23 45 7 34 31 84 36 78 4 -3 7 8 7 25
0 18 5 32 10 32 6 0 10 15 10 33 0 24 3 28 10 17 7 -11 10 -2 10 33 0 26 5 47
10 47 6 0 10 18 10 41 0 24 4 38 10 34 6 -4 10 19 10 62 0 42 4 63 9 54 8 -13
20 134 21 274 1 72 -9 204 -17 225 -7 20 -23 121 -30 189 -3 37 -8 49 -14 40
-6 -9 -9 2 -9 34 0 30 -4 46 -10 42 -8 -5 -15 31 -11 58 0 4 -3 7 -9 7 -5 0
-10 6 -10 13 0 8 -15 45 -34 83 -18 38 -39 86 -47 107 -7 21 -20 46 -29 55
-26 30 -50 79 -42 87 4 5 2 6 -3 2 -6 -3 -16 7 -23 22 -7 15 -20 36 -30 47
-10 10 -28 35 -41 54 -14 19 -35 45 -49 58 -14 12 -22 22 -18 22 7 0 -189 196
-253 253 -17 15 -39 27 -49 27 -15 0 -15 2 -2 10 12 8 11 10 -7 10 -13 0 -23
4 -23 9 0 5 -9 13 -20 16 -11 3 -26 12 -32 18 -17 16 -66 47 -75 48 -5 0 -15
6 -23 13 -19 17 -164 86 -179 86 -6 0 -11 5 -11 10 0 6 -13 10 -30 10 -16 0
-30 5 -30 10 0 6 -9 10 -19 10 -11 0 -23 5 -26 10 -3 6 -19 10 -34 10 -15 0
-31 4 -37 9 -12 12 -135 41 -234 55 -19 3 -59 10 -89 16 -78 15 -379 10 -491
-7z m410 -2 c413 -35 784 -202 1081 -488 217 -210 370 -451 458 -721 30 -91
71 -274 71 -315 0 -19 -1 -19 -12 -4 -7 9 -31 17 -52 19 -25 2 -41 9 -43 18
-4 13 -3 13 7 0 9 -12 11 -12 8 -1 -2 8 -15 15 -29 17 -13 1 -18 0 -11 -2 6
-3 12 -12 12 -20 0 -8 7 -17 15 -20 8 -4 15 -11 15 -17 0 -6 -3 -7 -7 -4 -3 4
-12 2 -19 -4 -8 -6 -14 -6 -18 0 -4 5 -2 13 4 16 8 5 8 11 1 19 -6 7 -24 65
-40 128 -72 286 -216 541 -426 753 -200 202 -405 328 -669 410 -185 57 -267
69 -486 69 -163 1 -213 -3 -306 -22 -581 -117 -1046 -522 -1237 -1077 -30 -87
-73 -251 -70 -265 1 -3 -18 -3 -41 -2 -30 3 -48 -1 -59 -13 -12 -12 -17 -13
-17 -3 0 10 -3 9 -11 -2 -17 -24 -2 89 27 204 79 314 227 575 460 810 367 372
876 561 1394 517z m-359 -1048 c153 -45 258 -149 289 -290 14 -62 14 -181 -1
-252 -11 -54 -58 -160 -59 -133 0 7 -5 10 -10 7 -6 -4 -7 -11 -4 -17 5 -8 -4
-9 -28 -5 -21 3 -41 1 -48 -6 -10 -9 -11 -9 -6 1 5 7 1 12 -9 12 -9 0 -14 4
-10 9 9 15 -15 25 -28 12 -9 -9 -7 -10 7 -5 13 5 17 4 12 -4 -4 -7 -21 -10
-39 -8 -21 2 -51 -7 -87 -25 -37 -20 -81 -32 -135 -39 -90 -11 -205 -3 -205
14 0 9 32 12 108 12 227 -1 334 79 349 262 11 135 -35 230 -134 278 -52 26
-70 29 -185 32 l-128 4 -1 -226 c-1 -124 -2 -229 -3 -233 -1 -5 -5 -25 -9 -45
l-8 -36 -79 -4 -79 -3 -7 30 c-4 17 -9 173 -11 347 l-4 316 53 6 c116 13 138
14 283 11 111 -2 167 -8 216 -22z m652 -389 l46 -7 6 -71 7 -72 58 57 c67 66
124 89 216 89 58 0 62 -2 68 -26 4 -14 4 -52 0 -84 l-6 -58 -78 -4 c-82 -5
-153 -35 -183 -78 -8 -11 -17 -17 -20 -13 -4 3 -7 2 -7 -4 0 -6 -12 -18 -26
-28 -15 -9 -24 -13 -21 -8 3 5 -31 10 -81 12 -47 1 -89 4 -92 7 -2 3 -6 68 -8
144 l-4 138 28 5 c16 2 34 5 40 6 6 0 32 -2 57 -5z m1165 -611 c-23 -155 -100
-371 -182 -516 -112 -196 -298 -403 -476 -529 -441 -312 -1026 -384 -1532
-189 -475 184 -842 593 -974 1085 -13 50 -22 92 -19 94 2 2 9 -16 15 -39 125
-496 474 -910 930 -1103 225 -96 392 -129 640 -129 188 0 288 13 447 59 569
164 1013 642 1128 1214 20 98 23 110 28 110 2 0 0 -26 -5 -57z"/>
<path d="M8093 7619 c-197 -19 -367 -69 -558 -164 -369 -184 -646 -491 -796
-880 -23 -59 -48 -153 -55 -204 -3 -20 -8 -47 -10 -61 -15 -77 -19 -144 -19
-315 0 -157 4 -210 23 -302 67 -333 230 -627 478 -862 412 -390 1005 -533
1551 -375 684 198 1162 828 1163 1536 0 102 -24 367 -36 398 -3 8 -8 28 -11
44 -9 54 -65 200 -115 300 -155 312 -418 572 -733 727 -281 137 -567 189 -882
158z m-421 -977 c117 -32 185 -69 259 -142 119 -117 171 -260 170 -469 0 -68
-3 -140 -6 -160 -13 -81 -38 -171 -47 -171 -5 0 -7 -4 -4 -9 7 -11 -18 -33
-27 -24 -4 3 -7 2 -7 -4 0 -6 -9 -9 -20 -6 -11 3 -33 1 -49 -5 -25 -9 -29 -8
-24 4 4 10 0 12 -11 8 -9 -3 -14 -10 -11 -14 3 -5 1 -11 -5 -15 -5 -3 -10 -1
-10 6 0 8 -5 7 -16 -2 -15 -12 -16 -11 -10 11 7 24 7 24 -8 5 -64 -82 -119
-119 -221 -145 -82 -21 -308 -29 -319 -11 -3 5 61 11 142 13 164 6 227 22 305
82 107 81 147 182 155 382 6 194 -24 305 -108 397 -59 65 -128 103 -217 122
-68 15 -238 20 -267 9 -14 -5 -16 -47 -16 -359 0 -223 -4 -356 -10 -360 -9 -5
-42 8 -131 54 -15 8 -30 23 -33 35 -3 12 -6 190 -6 398 l0 376 78 7 c42 3 86
7 97 9 11 2 83 2 160 1 104 -2 160 -8 217 -23z m776 -394 c6 -24 45 -189 87
-368 42 -178 78 -326 80 -328 5 -5 11 18 116 408 44 168 86 311 91 318 11 13
145 17 165 4 12 -7 178 -601 170 -608 -2 -3 -10 15 -17 39 l-12 45 -31 -16
c-18 -8 -34 -18 -37 -22 -3 -4 -13 -9 -22 -13 -26 -10 -40 19 -89 191 -24 83
-46 152 -49 152 -3 0 -27 -76 -54 -168 -27 -92 -53 -171 -58 -176 -4 -6 -8
-18 -8 -28 0 -10 -4 -18 -10 -18 -5 0 -11 -8 -11 -17 -1 -17 -2 -17 -6 0 -6
21 -22 22 -30 1 -5 -14 -7 -14 -14 -1 -7 12 -14 13 -33 4 -17 -8 -27 -26 -36
-62 -21 -82 -26 -83 -45 -4 -17 73 -34 117 -35 92 0 -8 -15 -13 -40 -13 -25 0
-40 -5 -41 -12 0 -9 -2 -9 -6 1 -4 10 -7 10 -13 1 -5 -8 -10 -9 -14 -2 -3 6 1
18 10 26 14 15 13 16 -8 14 -15 -2 -23 2 -23 12 0 8 -2 17 -6 20 -10 9 -168
553 -163 562 3 4 45 8 93 8 l89 0 10 -42z m1078 36 c20 -5 19 -10 -32 -182
-57 -186 -72 -225 -86 -216 -4 3 -8 -2 -8 -10 0 -14 -4 -17 -25 -16 -3 0 -15
-9 -27 -20 -12 -11 -30 -20 -40 -20 -11 0 -16 -4 -13 -10 3 -5 0 -10 -9 -10
-8 0 -19 -12 -25 -27 -10 -26 -11 -26 -6 -3 2 14 5 31 5 38 0 7 4 10 10 7 6
-3 7 1 4 9 -7 19 96 448 110 458 13 9 112 10 142 2z"/>
</g>
</svg>
